<?xml version="1.0" encoding="utf-8"?>
<!-- Generator: Adobe Illustrator 28.0.0, SVG Export Plug-In . SVG Version: 6.00 Build 0)  -->
<svg version="1.1" id="Glyph" xmlns="http://www.w3.org/2000/svg" xmlns:xlink="http://www.w3.org/1999/xlink" x="0px" y="0px"
	 viewBox="0 0 64 64" enable-background="new 0 0 64 64" xml:space="preserve">
<g>
	<path d="M57,28c0-5.39001-3.83002-9.90002-9.03998-10.83002c-0.28003-3.23999-2.17999-6.09998-5.11005-7.62
		C40.31,8.25,37.32001,8.15997,34.71002,9.28998C32.78003,7.81,30.41998,7,28,7c-5.73999,0-10.46997,4.41998-10.96002,10.03998
		C11.41998,17.52997,7,22.26001,7,28c0,6.07001,4.92999,11,11,11c0.59998,0,1.20001-0.04999,1.78998-0.15002
		C18.65002,36.82001,18,34.48999,18,32c0-7.72003,6.28003-14,14-14s14,6.27997,14,14c0,2.48999-0.65002,4.82001-1.78998,6.84998
		C44.79999,38.95001,45.40002,39,46,39C52.07001,39,57,34.07001,57,28z"/>
	<path d="M34.5,28c0-1.37891-1.12109-2.5-2.5-2.5s-2.5,1.12109-2.5,2.5v1.5h5V28z"/>
	<path d="M35,31.5h-6c-0.55176,0-1,0.44824-1,1v4c0,0.55176,0.44824,1,1,1h6c0.55176,0,1-0.44824,1-1v-4
		C36,31.94824,35.55176,31.5,35,31.5z M32,35.5c-0.55231,0-1-0.44775-1-1c0-0.55231,0.44769-1,1-1s1,0.44769,1,1
		C33,35.05225,32.55231,35.5,32,35.5z"/>
	<path d="M32,20c-6.61719,0-12,5.38281-12,12s5.38281,12,12,12s12-5.38281,12-12S38.61719,20,32,20z M38,36.5c0,1.6543-1.3457,3-3,3
		h-6c-1.6543,0-3-1.3457-3-3v-4c0-1.10547,0.60767-2.06238,1.5-2.58276V28c0-2.48145,2.01855-4.5,4.5-4.5s4.5,2.01855,4.5,4.5
		v1.91724C37.39233,30.43762,38,31.39453,38,32.5V36.5z"/>
	<path d="M35,55h-6c-0.55273,0-1,0.44727-1,1s0.44727,1,1,1h6c0.55273,0,1-0.44727,1-1S35.55273,55,35,55z"/>
	<path d="M45,55h-6c-0.55273,0-1,0.44727-1,1s0.44727,1,1,1h6c0.55273,0,1-0.44727,1-1S45.55273,55,45,55z"/>
	<path d="M55,55h-6c-0.55273,0-1,0.44727-1,1s0.44727,1,1,1h6c0.55273,0,1-0.44727,1-1S55.55273,55,55,55z"/>
	<path d="M18.45703,48.79688c-0.1709,0.52539,0.11719,1.08887,0.64258,1.25977l1.28198,0.41638l-0.79272,1.09143
		c-0.32422,0.4472-0.22461,1.0722,0.22162,1.3974c0.42755,0.31158,1.07306,0.22388,1.39752-0.22162L22,51.64978
		c0,0,0.79132,1.08948,0.79199,1.09045c0.31158,0.42902,0.95105,0.54297,1.39746,0.22168
		c0.44629-0.3252,0.5459-0.9502,0.22168-1.39746l-0.79272-1.09143l1.28198-0.41638c0.52539-0.1709,0.81348-0.73438,0.64258-1.25977
		s-0.7373-0.81348-1.25977-0.64258L23,48.57104v-1.34839c0-0.55273-0.44727-1-1-1s-1,0.44727-1,1v1.34839l-1.2832-0.41675
		C19.19238,47.98438,18.62891,48.27148,18.45703,48.79688z"/>
	<path d="M25,55h-6c-0.55273,0-1,0.44727-1,1s0.44727,1,1,1h6c0.55273,0,1-0.44727,1-1S25.55273,55,25,55z"/>
	<path d="M12,46.22266c-0.55273,0-1,0.44727-1,1v1.34839L9.7168,48.1543c-0.52539-0.16992-1.08887,0.11719-1.25977,0.64258
		s0.11719,1.08887,0.64258,1.25977l1.28198,0.41638l-0.79272,1.09143c-0.32422,0.44727-0.22461,1.07227,0.22168,1.39746
		c0.44244,0.32086,1.07635,0.21924,1.39746-0.22168L12,51.64978c0,0,0.79138,1.0896,0.79199,1.09045
		c0.31244,0.43018,0.94977,0.54388,1.39746,0.22168c0.44629-0.3252,0.5459-0.9502,0.22168-1.39746l-0.79272-1.09143l1.28198-0.41638
		c0.52539-0.1709,0.81348-0.73438,0.64258-1.25977c-0.17188-0.52539-0.73633-0.81348-1.25977-0.64258L13,48.57104v-1.34839
		C13,46.66992,12.55273,46.22266,12,46.22266z"/>
	<path d="M45.54297,48.79688c-0.17188-0.52539-0.73535-0.8125-1.25977-0.64258L43,48.57104v-1.34839c0-0.55273-0.44727-1-1-1
		s-1,0.44727-1,1v1.34839l-1.2832-0.41675c-0.52246-0.1709-1.08887,0.11719-1.25977,0.64258s0.11719,1.08887,0.64258,1.25977
		l1.28198,0.41638l-0.79272,1.09143c-0.32422,0.44727-0.22461,1.07227,0.22168,1.39746
		c0.44641,0.32129,1.08588,0.20734,1.39746-0.22168C41.20868,52.73926,42,51.64978,42,51.64978l0.79199,1.09045
		c0.32446,0.4455,0.96997,0.5332,1.39752,0.22162c0.44623-0.3252,0.54584-0.9502,0.22162-1.3974l-0.79272-1.09143l1.28198-0.41638
		C45.42578,49.88574,45.71387,49.32227,45.54297,48.79688z"/>
	<path d="M35.54297,48.79688c-0.17188-0.52539-0.73535-0.8125-1.25977-0.64258L33,48.57104v-1.34839c0-0.55273-0.44727-1-1-1
		s-1,0.44727-1,1v1.34839l-1.2832-0.41675c-0.52246-0.1709-1.08887,0.11719-1.25977,0.64258s0.11719,1.08887,0.64258,1.25977
		l1.28198,0.41638l-0.79272,1.09143c-0.32422,0.44727-0.22461,1.07227,0.22168,1.39746
		c0.44641,0.32129,1.08588,0.20734,1.39746-0.22168C31.20868,52.73926,32,51.64978,32,51.64978l0.79199,1.09045
		c0.32446,0.4455,0.96997,0.5332,1.39752,0.22162c0.44623-0.3252,0.54584-0.9502,0.22162-1.3974l-0.79272-1.09143l1.28198-0.41638
		C35.42578,49.88574,35.71387,49.32227,35.54297,48.79688z"/>
	<path d="M55.54297,48.79688c-0.1709-0.52539-0.73438-0.8125-1.25977-0.64258L53,48.57104v-1.34839c0-0.55273-0.44727-1-1-1
		s-1,0.44727-1,1v1.34839l-1.2832-0.41675c-0.52344-0.1709-1.08789,0.11719-1.25977,0.64258
		c-0.1709,0.52539,0.11719,1.08887,0.64258,1.25977l1.28198,0.41638l-0.79272,1.09143
		c-0.32422,0.44727-0.22461,1.07227,0.22168,1.39746c0.44769,0.3222,1.08502,0.2085,1.39746-0.22168
		C51.20862,52.73938,52,51.64978,52,51.64978l0.79199,1.09045c0.32111,0.44092,0.95502,0.54254,1.39746,0.22168
		c0.44629-0.3252,0.5459-0.9502,0.22168-1.39746l-0.79272-1.09143l1.28198-0.41638
		C55.42578,49.88574,55.71387,49.32227,55.54297,48.79688z"/>
	<path d="M15,55H9c-0.55273,0-1,0.44727-1,1s0.44727,1,1,1h6c0.55273,0,1-0.44727,1-1S15.55273,55,15,55z"/>
</g>
</svg>
